<?xml version="1.0" standalone="no"?>
<!DOCTYPE svg PUBLIC "-//W3C//DTD SVG 20010904//EN"
 "http://www.w3.org/TR/2001/REC-SVG-20010904/DTD/svg10.dtd">
<svg version="1.0" xmlns="http://www.w3.org/2000/svg"
 width="200.000000pt" height="200.000000pt" viewBox="0 0 200.000000 200.000000"
 preserveAspectRatio="xMidYMid meet">

<g transform="translate(0.000000,200.000000) scale(0.100000,-0.100000)"
fill="#000000" stroke="none">
<path d="M869 1615 c-96 -19 -242 -97 -252 -134 -12 -49 35 -66 84 -30 53 37
158 79 223 88 124 18 248 -10 357 -80 53 -34 84 -37 99 -10 19 37 -8 64 -119
121 -114 57 -252 73 -392 45z"/>
<path d="M906 1430 c-107 -28 -228 -126 -275 -224 -62 -133 -48 -305 34 -412
53 -69 117 -17 67 54 -62 87 -73 207 -28 308 118 262 472 262 592 -1 36 -78
38 -175 4 -252 -12 -29 -28 -58 -36 -64 -21 -18 -17 -66 6 -79 18 -9 26 -6 54
22 52 53 80 136 81 243 0 109 -18 167 -77 246 -45 60 -117 115 -188 143 -53
21 -179 29 -234 16z"/>
<path d="M509 1378 c-189 -257 -144 -619 100 -809 100 -77 156 -88 156 -28 0
17 -13 32 -49 56 -257 168 -315 465 -143 725 32 48 36 60 27 77 -18 35 -56 26
-91 -21z"/>
<path d="M1407 1413 c-14 -14 -6 -56 17 -86 68 -91 113 -246 101 -347 -19
-155 -95 -284 -217 -366 -77 -53 -93 -84 -56 -108 40 -25 180 76 252 182 143
209 138 485 -13 690 -29 40 -65 55 -84 35z"/>
<path d="M940 1234 c-19 -8 -47 -27 -62 -41 -51 -49 -42 -53 122 -53 117 0
150 3 150 13 0 23 -63 75 -105 86 -51 14 -63 13 -105 -5z"/>
<path d="M754 1085 c-9 -23 2 -43 26 -47 30 -4 24 -23 -6 -21 -33 3 -26 -21 8
-25 28 -3 53 20 44 43 -3 8 -18 20 -33 26 -21 8 -24 12 -14 19 8 4 20 6 27 3
6 -2 15 0 19 6 4 7 -7 11 -30 11 -22 0 -38 -6 -41 -15z"/>
<path d="M861 1049 c-23 -51 -20 -79 3 -46 7 9 21 17 31 17 10 0 24 -8 31 -17
7 -10 15 -15 19 -11 10 9 -36 108 -50 108 -7 0 -22 -23 -34 -51z m43 6 c3 -9
0 -15 -9 -15 -9 0 -12 6 -9 15 4 8 7 15 9 15 2 0 5 -7 9 -15z"/>
<path d="M956 1078 c14 -49 33 -88 43 -88 5 0 14 15 21 33 l11 32 14 -32 c8
-18 18 -33 24 -33 8 0 41 81 41 102 0 20 -19 5 -30 -24 l-13 -33 -10 33 c-5
17 -16 32 -22 32 -7 0 -18 -15 -24 -32 -9 -26 -14 -30 -21 -18 -5 8 -10 23
-10 33 0 9 -7 17 -16 17 -11 0 -14 -6 -8 -22z"/>
<path d="M1120 1090 c0 -5 6 -10 14 -10 10 0 16 -14 18 -42 2 -24 8 -42 13
-40 11 2 12 6 14 52 1 19 6 30 16 30 8 0 15 5 15 10 0 6 -20 10 -45 10 -25 0
-45 -4 -45 -10z"/>
<path d="M1222 1048 c4 -67 22 -65 26 2 2 40 0 50 -13 50 -13 0 -15 -10 -13
-52z"/>
<path d="M840 945 c0 -11 11 -15 39 -15 77 0 73 -45 -4 -52 -55 -4 -50 -22 7
-26 29 -2 48 -8 52 -17 7 -20 -27 -37 -58 -29 -34 8 -39 -8 -13 -47 47 -71
159 -92 230 -44 20 14 44 39 52 55 l15 29 -46 7 c-34 5 -44 10 -42 23 2 11 17
18 48 21 56 6 56 23 -1 32 -49 9 -53 12 -46 33 4 10 20 15 47 15 29 0 40 4 40
15 0 13 -24 15 -160 15 -136 0 -160 -2 -160 -15z"/>
<path d="M958 434 c-33 -17 -31 -9 -32 -144 -1 -95 -4 -110 -29 -158 -15 -29
-44 -71 -64 -92 l-35 -40 201 0 201 0 -44 54 c-67 82 -90 152 -82 253 7 95 3
109 -35 128 -35 18 -47 18 -81 -1z"/>
</g>
</svg>
